Coordinates
version=1
nRows=27
nColumns=12
inDegrees=yes

Units are S.I. units (second, meters, Newtons, ...)
Angles are in degrees

endheader
time	SC_y	SC_z	SC_x	AC_y	AC_z	AC_x	GH_y	GH_z	GH_yy	EL_x	PS_y
       0.0              -45.35          12.23          64.99          60.05          4.297         -15.25         0.5643          -18.5         -19.26          121.2          45.49
   0.02709              -45.35          12.22          64.98          60.05          4.296         -15.25           0.56         -18.49         -19.25          121.2           45.5
   0.05418              -45.35          12.22          64.98          60.04          4.294         -15.25         0.5555         -18.48         -19.23          121.2          45.52
   0.08127              -45.35          12.22          64.97          60.04          4.292         -15.24         0.5507         -18.47         -19.21          121.2          45.54
    0.1084              -45.35          12.21          64.97          60.03           4.29         -15.24         0.5455         -18.45          -19.2          121.2          45.56
    0.1354              -45.35          12.21          64.96          60.03          4.288         -15.24         0.5401         -18.44         -19.18          121.2          45.58
    0.1625              -45.35          12.21          64.95          60.02          4.286         -15.24         0.5342         -18.43         -19.16          121.2           45.6
    0.1896              -45.36           12.2          64.94          60.02          4.284         -15.24          0.528         -18.41         -19.14          121.2          45.62
    0.2167              -45.36           12.2          64.94          60.01          4.282         -15.23         0.5213          -18.4         -19.12          121.2          45.65
    0.2438              -45.36           12.2          64.93          60.01          4.279         -15.23         0.5141         -18.38         -19.09          121.2          45.67
    0.2709              -45.36          12.19          64.92           60.0          4.276         -15.23         0.5064         -18.36         -19.07          121.2           45.7
     0.298              -45.36          12.19          64.91           60.0          4.273         -15.23         0.4981         -18.34         -19.04          121.2          45.73
    0.3251              -45.36          12.18           64.9          59.99           4.27         -15.22         0.4891         -18.32         -19.01          121.2          45.77
    0.3522              -45.36          12.18          64.88          59.98          4.267         -15.22         0.4794          -18.3         -18.98          121.2           45.8
    0.3793              -45.36          12.17          64.87          59.97          4.263         -15.21          0.469         -18.28         -18.95          121.2          45.84
    0.4063              -45.36          12.16          64.86          59.96          4.259         -15.21         0.4576         -18.25         -18.91          121.1          45.89
    0.4334              -45.36          12.16          64.84          59.95          4.254         -15.21         0.4453         -18.22         -18.87          121.1          45.93
    0.4605              -45.36          12.15          64.82          59.94          4.249          -15.2         0.4319         -18.19         -18.82          121.1          45.98
    0.4876              -45.37          12.14          64.81          59.93          4.244         -15.19         0.4172         -18.15         -18.78          121.1          46.04
    0.5147              -45.37          12.13          64.79          59.92          4.238         -15.19         0.4012         -18.12         -18.72          121.1           46.1
    0.5418              -45.37          12.12          64.77           59.9          4.232         -15.18         0.3835         -18.08         -18.66          121.1          46.17
    0.5689              -45.37          12.11          64.74          59.89          4.225         -15.17         0.3641         -18.03          -18.6          121.1          46.24
     0.596              -45.37           12.1          64.71          59.87          4.217         -15.17         0.3427         -17.98         -18.53          121.0          46.32
    0.6231              -45.37          12.08          64.69          59.85          4.208         -15.16         0.3189         -17.92         -18.45          121.0          46.41
    0.6501              -45.38          12.07          64.65          59.83          4.199         -15.15         0.2925         -17.86         -18.37          121.0          46.51
    0.6772              -45.38          12.05          64.62          59.81          4.188         -15.14         0.2631         -17.79         -18.27          121.0          46.62
    0.7043              -45.38          12.03          64.58          59.78          4.176         -15.12         0.2301         -17.72         -18.16          121.0          46.74
